<?xml version="1.0" encoding="UTF-8"?>
<svg xmlns="http://www.w3.org/2000/svg" xmlns:xlink="http://www.w3.org/1999/xlink" viewBox="0 0 360 288">
  <defs>
    <style>
      .cls-1, .cls-2 {
        fill: #fdc759;
      }

      .cls-3 {
        fill: none;
      }

      .cls-4 {
        isolation: isolate;
      }

      .cls-5 {
        fill: #8a4896;
      }

      .cls-6 {
        font-size: 24.04px;
      }

      .cls-6, .cls-2 {
        font-family: ErasITC-Bold, 'Eras Bold ITC';
        font-weight: 700;
      }

      .cls-6, .cls-7 {
        fill: #1c5f64;
      }

      .cls-2 {
        font-size: 11.97px;
      }

      .cls-8 {
        fill: url(#radial-gradient);
        mix-blend-mode: multiply;
        opacity: .62;
      }

      .cls-9 {
        clip-path: url(#clippath);
      }
    </style>
    <radialGradient id="radial-gradient" cx="954.27" cy="31759.83" fx="954.27" fy="31770.44" r="65.01" gradientTransform="translate(-883.7 -9260.38) rotate(175.6) scale(1.32 -.3) skewX(-2.25)" gradientUnits="userSpaceOnUse">
      <stop offset="0" stop-color="#000"/>
      <stop offset=".07" stop-color="#202020"/>
      <stop offset=".22" stop-color="#5a5a5a"/>
      <stop offset=".36" stop-color="#8c8c8c"/>
      <stop offset=".5" stop-color="#b5b5b5"/>
      <stop offset=".64" stop-color="#d5d5d5"/>
      <stop offset=".77" stop-color="#ececec"/>
      <stop offset=".89" stop-color="#fafafa"/>
      <stop offset="1" stop-color="#fff"/>
    </radialGradient>
    <clipPath id="clippath">
      <path class="cls-3" d="M151.77,173.06c-17.55-36.4-2.27-80.11,34.1-97.66,36.4-17.56,80.11-2.29,97.67,34.1,17.54,36.38,2.26,80.1-34.12,97.66-36.38,17.55-80.1,2.27-97.66-34.1Z"/>
    </clipPath>
  </defs>
  <g class="cls-4">
    <g id="Calque_1">
      <g>
        <text class="cls-6" transform="translate(148.32 100.67) scale(1.72 1)"><tspan x="0" y="0">MINI</tspan></text>
        <g>
          <path class="cls-8" d="M99.14,238.8c3.62,14.33,59.63,21.87,125.07,16.85,65.45-5.05,115.58-20.76,111.95-35.09-3.62-14.35-59.63-21.87-125.06-16.84-65.46,5.04-115.57,20.74-111.96,35.08Z"/>
          <g class="cls-9">
            <g>
              <path class="cls-7" d="M281.49,127.07c-3.15,9-13.15,9.93-23.68,2.53.97,11.86,2.92,23.41,5.63,33.37,6.86-5.01,13.2-5.24,15.53.09,2.04,4.73-.15,13.44-4.86,20.51,1.42.56,3.06-.03,4.27-1.7,2.01-2.73,8.82.14,14.16-.54,10.67-1.35,20.97-6.2,28.95-14.51,18.57-19.33,17.97-50.33-1.38-68.89-9.54-9.17-21.9-13.65-34.22-13.53-3.08.03-6.15.36-9.18.96-3.03.62-6.67,4.4-8.64,2.43-1.76-1.79-3.83-2.15-5.27-1,3.05,2.07,6.1,4.8,8.87,8.1,8.21,9.77,12.65,24.11,9.81,32.2ZM289.09,137.01c.72,4.21.46,10.97-.57,15.59-1.14,5-2.97,6.35-4.05,2.47-1.26-4.58-.96-13.22.62-18.55,1.38-4.68,3.18-4.2,4.01.5Z"/>
              <path class="cls-1" d="M252.22,89.66c3.82-3.29,12.38-.01,18.53,7.3,6,7.09,9.06,17.03,6.98,22.13-2.66,6.44-11.39,4.75-19.41-4.16-8.36-9.32-11.21-20.83-6.11-25.27Z"/>
              <path class="cls-5" d="M157.08,140.36c3.65-5.94,10.92-5.99,16.28.31,5.9,6.86,6.98,17.6,2.21,23.43-4.24,5.23-11.9,3.85-16.68-2.75-4.42-6.19-5.15-15.51-1.81-20.99Z"/>
              <path class="cls-5" d="M261.3,172.62c5.69-6.74,12.17-8.57,14.41-4.23,1.84,3.53-.31,10.95-4.83,16.52-4.6,5.65-10.83,8.3-13.68,5.92-3.6-3.05-1.72-11.28,4.1-18.2Z"/>
              <path class="cls-1" d="M197.29,125.43c12.5-12.93,33.59-13.03,45.96-.36,11.79,12.1,11.73,32.39.06,44.67-11.75,12.33-32.09,13.26-44.7,1.89-13.18-11.98-13.85-33.15-1.32-46.19Z"/>
            </g>
          </g>
        </g>
        <text class="cls-2" transform="translate(145.34 112.44)"><tspan x="0" y="0">Journée sportive</tspan></text>
      </g>
    </g>
  </g>
</svg>