<?xml version="1.0" encoding="UTF-8"?>
<svg id="Calque_1" xmlns="http://www.w3.org/2000/svg" viewBox="0 0 360 288">
  <defs>
    <style>
      .cls-1 {
        fill: #1c5f64;
      }

      .cls-1, .cls-2 {
        stroke: #fff;
        stroke-miterlimit: 10;
        stroke-width: 2.5px;
      }

      .cls-3 {
        fill: #fdc759;
      }

      .cls-2 {
        fill: none;
      }
    </style>
  </defs>
  <g>
    <path class="cls-3" d="M115.41,186.65c-7.94-5.31-13.61-12.48-17.03-21.51-3.42-9.03-4.58-19.22-3.48-30.58h26.18c-.73,6.96-.21,13.06,1.56,18.31,1.77,5.25,4.73,9.34,8.88,12.27,4.15,2.93,9.34,4.39,15.56,4.39,10.25,0,18.15-3.42,23.71-10.25,5.55-6.83,8.33-17.21,8.33-31.13V63.88h28.38v64.81c.12,13.79-2.26,25.63-7.14,35.52-4.88,9.89-11.96,17.42-21.24,22.61-9.28,5.19-20.51,7.78-33.69,7.78-12.08,0-22.09-2.65-30.03-7.96Z"/>
    <path class="cls-3" d="M219.81,63.88h27.28l-.21,123.92h-27.28l.21-123.92Z"/>
  </g>
  <g>
    <g>
      <line class="cls-1" x1="193.75" y1="136.43" x2="207.51" y2="105.54"/>
      <line class="cls-1" x1="178.86" y1="171.3" x2="190.63" y2="143.74"/>
      <path class="cls-1" d="M190.63,143.74c.48.21,1.01.32,1.56.32,2.19,0,3.97-1.78,3.97-3.97s-1.78-3.97-3.97-3.97-3.97,1.78-3.97,3.97c0,1.64.99,3.05,2.41,3.65"/>
    </g>
    <g>
      <line class="cls-1" x1="178.32" y1="100.68" x2="204.73" y2="74.4"/>
      <path class="cls-1" d="M201.18,78.4c.35.15.74.24,1.15.24,1.61,0,2.92-1.31,2.92-2.92s-1.31-2.92-2.92-2.92-2.92,1.31-2.92,2.92c0,1.21.73,2.24,1.77,2.69"/>
    </g>
    <line class="cls-1" x1="229.77" y1="63.88" x2="242.44" y2="77.12"/>
    <line class="cls-1" x1="189.6" y1="172.89" x2="200.25" y2="162.13"/>
    <line class="cls-1" x1="204.48" y1="70.53" x2="187.14" y2="66.64"/>
    <line class="cls-1" x1="196.02" y1="141.14" x2="206.29" y2="145.32"/>
  </g>
  <g>
    <g>
      <line class="cls-1" x1="122" y1="174.56" x2="126.91" y2="160.81"/>
      <line class="cls-1" x1="114.4" y1="185.95" x2="118.88" y2="181.86"/>
      <path class="cls-1" d="M118.88,181.86c.48.21,1.01.32,1.56.32,2.19,0,3.97-1.78,3.97-3.97s-1.78-3.97-3.97-3.97-3.97,1.78-3.97,3.97c0,1.64.99,3.05,2.41,3.65"/>
    </g>
    <line class="cls-1" x1="117.49" y1="224.12" x2="134.44" y2="210.67"/>
    <line class="cls-1" x1="124.27" y1="179.27" x2="139.81" y2="185.6"/>
  </g>
  <g>
    <g>
      <line class="cls-2" x1="157.92" y1="191.18" x2="176.93" y2="151.76"/>
      <path class="cls-2" d="M159.66,193.32c-.41-2.15-6.16-1.25-5.81.91"/>
    </g>
    <line class="cls-2" x1="192.22" y1="114.15" x2="206.6" y2="131.87"/>
  </g>
  <g>
    <g>
      <line class="cls-1" x1="232.81" y1="117.71" x2="246.88" y2="81.88"/>
      <line class="cls-1" x1="220.33" y1="146.81" x2="229.68" y2="125.02"/>
      <path class="cls-1" d="M229.68,125.02c.48.21,1.01.32,1.56.32,2.19,0,3.97-1.78,3.97-3.97s-1.78-3.97-3.97-3.97-3.97,1.78-3.97,3.97c0,1.64.99,3.05,2.41,3.65"/>
    </g>
    <g>
      <g>
        <line class="cls-1" x1="231.84" y1="174.52" x2="242.68" y2="163.54"/>
        <line class="cls-1" x1="219.6" y1="186.72" x2="227.79" y2="178.57"/>
      </g>
      <path class="cls-1" d="M228.62,179.27c.35.15.74.24,1.15.24,1.61,0,2.92-1.31,2.92-2.92s-1.31-2.92-2.92-2.92-2.92,1.31-2.92,2.92c0,1.21.73,2.24,1.77,2.69"/>
    </g>
    <g>
      <line class="cls-1" x1="173.59" y1="163.2" x2="185.49" y2="179.97"/>
      <path class="cls-1" d="M182.57,179.57c.3.13.64.2.99.2,1.39,0,2.52-1.13,2.52-2.52s-1.13-2.52-2.52-2.52-2.52,1.13-2.52,2.52c0,1.04.63,1.93,1.53,2.32"/>
    </g>
    <line class="cls-1" x1="251.11" y1="163.57" x2="265.49" y2="181.29"/>
    <line class="cls-1" x1="228.65" y1="154.17" x2="251.14" y2="136.98"/>
    <line class="cls-1" x1="227.54" y1="174.7" x2="219.6" y2="172.85"/>
    <line class="cls-1" x1="235.07" y1="122.42" x2="246.88" y2="127.91"/>
    <g>
      <line class="cls-1" x1="226.64" y1="70.76" x2="227.97" y2="64.37"/>
      <line class="cls-1" x1="220.67" y1="85.7" x2="223.51" y2="78.07"/>
      <path class="cls-1" d="M223.51,78.07c.48.21,1.01.32,1.56.32,2.19,0,3.97-1.78,3.97-3.97s-1.78-3.97-3.97-3.97-3.97,1.78-3.97,3.97c0,1.64.99,3.05,2.41,3.65"/>
    </g>
    <g>
      <line class="cls-1" x1="108.33" y1="148.11" x2="118.46" y2="136.85"/>
      <line class="cls-1" x1="99.65" y1="166.72" x2="105.21" y2="155.41"/>
      <path class="cls-1" d="M105.21,155.41c.48.21,1.01.32,1.56.32,2.19,0,3.97-1.78,3.97-3.97s-1.78-3.97-3.97-3.97-3.97,1.78-3.97,3.97c0,1.64.99,3.05,2.41,3.65"/>
    </g>
    <line class="cls-1" x1="222.48" y1="107.21" x2="244.97" y2="90.03"/>
    <line class="cls-1" x1="228.9" y1="75.47" x2="244.45" y2="81.8"/>
  </g>
</svg>